<svg xmlns="http://www.w3.org/2000/svg" viewBox="0 0 216.34 59.89"><path fill="#063b6d" d="M13.53 0C8.93-.15 5.8 3.8 3.83 7.6.73 13.58 0 20.77 0 27.43 0 33.9.4 41.4 3.77 47.09c2.15 3.62 5.42 6.07 9.84 4.76a13.47 13.47 0 0 0 3.98-2.22l.03-11.45c-1.08.73-2.18 1.53-3.47 1.83-2.16.5-3.97-1.05-4.84-2.87-1.51-3.12-1.81-7.05-1.8-10.48 0-3.54.32-7.42 1.81-10.66.87-1.9 2.17-4.2 4.56-4.38 1.34-.1 2.57.35 3.8.8L17.71.96A11.73 11.73 0 0 0 13.53 0Zm172.36 0c-4.2-.13-7.5 2.9-9.67 6.3-2.92 4.59-3.78 10.24-3.77 15.59.02 5.86.97 11.98 3.87 17.16 2.18 3.9 5.37 7.45 9.92 8.55a9.7 9.7 0 0 0 3.98-.12l-.03-10.95c-1.14.3-2.29.6-3.47.39-2.39-.45-3.84-2.35-4.88-4.32-1.52-2.87-1.85-6.43-1.86-9.63 0-3 .42-6.18 1.78-8.92.85-1.71 2.47-3.45 4.54-3.35 1.37.06 2.59.62 3.81 1.2L190.08.92a12.02 12.02 0 0 0-4.2-.9zm-79.82 1.03-1.38 8.23a294.78 294.78 0 0 0-1 6.47l-.77 5.69c-.87-6.82-1.91-13.6-2.99-20.4l-8.9.02-3.43 37.19c2.23-.13 4.46-.24 6.7-.33l1.85-25.43c1.5 8.4 3.02 16.82 4.54 25.23a472.9 472.9 0 0 1 4.79-.07l4.36-25.17 1.9 25.18a420 420 0 0 1 7 .14l-3.58-36.75zm23.76 0a6766.56 6766.56 0 0 1-8.17 36.85 424.58 424.58 0 0 1 7.21.36l1.22-6.15a507.26 507.26 0 0 1 7.46.46l1.21 6.42c2.45.22 4.9.47 7.34.73a5277.32 5277.32 0 0 0-8.37-38.64zM77 1.08l-7.9.02a4253.54 4253.54 0 0 0-8.4 39.8c2.4-.33 4.8-.64 7.2-.92l1.26-6.61a507.75 507.75 0 0 1 7.46-.64l1.17 6.24c2.45-.21 4.9-.4 7.35-.57A5002.03 5002.03 0 0 1 77 1.07Zm72.53.03.14 39.02a430.39 430.39 0 0 1 7.06.92l-.07-18.18h.11a1813.7 1813.7 0 0 1 5.78 19.05c2.49.4 4.97.82 7.44 1.26-1.86-6.5-3.76-13-5.7-19.48a7.9 7.9 0 0 0 3.16-3.95 15.62 15.62 0 0 0 1.07-5.77c-.08-3.35-.71-6.74-2.92-9.4-1.95-2.36-4.85-3.44-7.87-3.44zm-91.62.03-7.04.03-.12 28.64c.02 1.86-.6 4.8-2.7 4.88-1.04.05-2.15-.76-3.03-1.45l-.04 9.6a6.65 6.65 0 0 0 4.57.92c2.6-.45 4.64-2.21 5.96-4.43 1.69-2.84 2.19-6.04 2.28-9.3zm-22.17.1-7.9.05a3197.57 3197.57 0 0 0-8.36 47.78c2.38-.61 4.77-1.2 7.16-1.78l1.25-7.92a520.17 520.17 0 0 1 7.43-1.4l1.15 7.12a440.18 440.18 0 0 1 7.32-1.45 3388.56 3388.56 0 0 1-8.05-42.4zm164.47.13a3686.08 3686.08 0 0 1-8.09 46.5c2.4.6 4.78 1.2 7.16 1.84l1.2-7.8a530.15 530.15 0 0 1 7.4 1.74l1.2 8.82a463.09 463.09 0 0 1 7.26 2.23A3372.24 3372.24 0 0 0 208.1 1.4zM156.6 8.84c1.3.06 2.75.42 3.6 1.4.96 1.13 1.04 2.68 1.1 4.1.1 2.77-2.04 4.12-4.66 3.98zm-22.93.78h.09a222.9 222.9 0 0 0 2.42 16.06 713.94 713.94 0 0 0-4.83-.24 222.82 222.82 0 0 0 2.32-15.82zm-60.7.22a212.83 212.83 0 0 0 2.32 16.13 714.13 714.13 0 0 0-4.82.33 254.6 254.6 0 0 0 2.4-16.46zM31.7 11.5A275.77 275.77 0 0 0 34 30.23l-4.8.7a359.72 359.72 0 0 0 2.4-19.41zm172.34 1.22h.1c.59 7.2 1.41 14.38 2.39 21.54l-4.8-.9a358.57 358.57 0 0 0 2.31-20.64zm-47.6 33.98c-1.09 0-1.97.34-2.65 1.02a3.57 3.57 0 0 0-1.02 2.63 3.75 3.75 0 0 0 .66 2.16 9.69 9.69 0 0 0 2.13 2.1c.4.3.7.57.86.79a1.14 1.14 0 0 1 .25.7c0 .32-.1.58-.31.78-.2.2-.5.3-.85.3-.6 0-1.36-.27-2.26-.8v2.92a5.4 5.4 0 0 0 2.36.56 4 4 0 0 0 2.87-1.06 3.53 3.53 0 0 0 1.13-2.68 3.73 3.73 0 0 0-.86-2.44 8.56 8.56 0 0 0-1.71-1.63c-.94-.66-1.41-1.25-1.41-1.77 0-.3.1-.54.3-.7.2-.18.48-.27.83-.27.52 0 1.2.23 2.05.7v-2.8a5.88 5.88 0 0 0-2.38-.51zm-84.27.34v7.76c0 1.84.3 3.15.92 3.92.62.77 1.69 1.16 3.2 1.16 1.02 0 1.82-.16 2.39-.47.57-.32 1-.81 1.3-1.5.29-.66.43-1.56.43-2.67v-8.2h-2.89v8.7c0 .44-.1.8-.33 1.05-.22.26-.52.38-.9.38-.37 0-.67-.12-.88-.36a1.4 1.4 0 0 1-.33-.97v-8.8zm16.55 0v12.5h2.84V54l-.08-1.55 3.53 7.1h2.9v-12.5h-2.83v5.86l.1 1.35-3.6-7.21zm17.64 0v12.5h2.84V54l-.08-1.55 3.53 7.1h2.9v-12.5h-2.83v5.86l.1 1.35-3.6-7.21zm17.63 0v12.5h5.76v-2.67h-2.92V54.6h2.51V52h-2.51v-2.3h2.9v-2.64zm-67.27 0v12.5h2.84v-5.7h.05l2.29 5.7h3l-2.27-5.64a2.9 2.9 0 0 0 1.28-1.27 3.76 3.76 0 0 0 .44-1.76c0-1.18-.39-2.1-1.16-2.8a4.6 4.6 0 0 0-3.16-1.02zm81 0v12.5h2.84v-5.7h.05l2.29 5.7h3l-2.27-5.64a2.9 2.9 0 0 0 1.28-1.27 3.76 3.76 0 0 0 .44-1.76c0-1.18-.39-2.1-1.16-2.8a4.6 4.6 0 0 0-3.16-1.02zm-78.16 2.42c.68.02 1.16.15 1.45.4.29.25.43.67.43 1.25 0 .85-.63 1.3-1.88 1.32zm81 0c.67.02 1.16.15 1.45.4.29.25.43.67.43 1.25 0 .85-.63 1.3-1.88 1.32z"/></svg>